<?xml version="1.0" encoding="UTF-8" standalone="no"?>
<svg
   xmlns:svg="http://www.w3.org/2000/svg"
   xmlns="http://www.w3.org/2000/svg"
   version="1.1"
   width="370.71924"
   height="290.18182"
   id="svg3067">
  <defs
     id="defs3069" />
  <g
     transform="translate(-208.92607,-404.41413)"
     id="layer1">
    <path
       d="m 401.02018,554.59913 c -2.84375,0.0113 -10.47,4.37 -10.4375,10.5 0.0538,8.27625 9.51625,10.59125 9.5625,18.53125 l 0.15625,24.6875 c 0.002,0.975 0.065,1.8925 0.15625,2.75 -0.62625,5.36375 -3.12125,9.58113 -5.96875,10.71875 2.20375,0.71488 6.56125,-0.7075 8.5625,-3.1875 1.3425,1.604 3.06,2.29 4.84375,2.28125 4.27125,-0.0249 8.94375,-3.09875 10.6875,-8.25 0.0325,-0.1075 0.0575,-0.1875 0.0937,-0.28125 l 0.0625,6.625 11.71875,-0.84375 c -2.1337,-2.78875 -3.1387,-6.19375 -3.1562,-9.09375 l -0.21875,-36.53125 c -0.0188,-2.895 0.9275,-6.1775 3.03125,-9.5 l -14.84375,1.15625 c 2.14125,2.8425 3.14,5.88375 3.15625,8.78125 l 0.21875,32.40625 c -1.94625,4.3275 -4.83625,6.14375 -6.75,6.15625 -1.68625,0.0388 -2.9425,-1.23875 -2.96875,-4.5 l -0.15625,-25.375 c -0.0625,-10.1125 -9.98375,-13.1 -10.03125,-20.53125 -0.0163,-2.76125 1.03375,-4.94875 2.28125,-6.5 z m 129.15625,6.625 c 1.78125,2.4975 2.61375,5.365 2.625,7.78125 l 0.25,39.75 c 0.015,2.40375 -0.775,5.02625 -2.53125,7.625 l 12.375,0.25 c -1.7775,-2.5425 -2.64125,-5.1825 -2.65625,-7.59375 l -0.28125,-47.625 -9.78125,-0.1875 z m -278.375,0.0625 c -12.82325,0.085 -21.69587,9.235 -25.59375,12.78125 2.07413,0.82375 4.417,2.57625 4.4375,6.28125 0.023,3.695 -6.85062,19.30875 -6.8125,25.46875 0.0259,4.75 2.896,7.08125 6.5,6.75 3.125,-0.2775 5.83888,-2.67375 5.8125,-6.1875 -0.0176,-3.33 -3.44187,-5.08875 -6,-4.125 -0.08,-13.16 10.11913,-24.47375 20.0625,-24.53125 9.52925,-0.0638 15.16938,8.55125 15.25,20.875 l 0,0.15625 c -3.83837,1.27875 -7.919,3.0475 -11.96875,5.1875 l -0.0625,-7.125 c -0.0126,-2.1975 0.81888,-7.17375 2.40625,-9.1875 l -17.15625,6.5625 c 3.17288,1.535 4.646,4.23625 4.65625,6.40625 l 0.0625,9.46875 c -12.34125,8.60375 -22.47712,20.09375 -22.40625,30.78125 0.0517,8.94725 4.69775,13.01362 11.40625,12.96875 3.72313,-0.024 7.52,-0.96 11.25,-2.65625 l 0.125,20.5625 c 0.0274,4.60012 -3.75887,8.39113 -7.5,9.0625 1.2905,-0.99275 2.23488,-2.9785 2.21875,-5.59375 -0.0259,-3.38863 -2.13725,-6.3985 -5.25,-6.375 -3.11525,0.0166 -6.05762,2.751 -6.03125,7.34375 0.0435,6.62263 5.90625,10.30363 12.03125,7.46875 l 19.3125,-8.71875 c -3.17337,-1.32038 -4.66312,-4.309 -4.6875,-7.71875 l -0.125,-22.53125 c 11.85013,-10.01213 21.3,-26.90625 22.59375,-43.875 0.64125,-0.0888 1.25625,-0.155 1.84375,-0.1875 -0.35625,0.8425 -0.57125,1.7625 -0.5625,2.6875 0.0213,3.68875 2.28,5.17125 4.375,5 2.5375,-0.195 4.645,-2.59125 4.625,-6.125 -0.0238,-3.49875 -1.87625,-5.94625 -10.125,-5.625 -0.15,-22.33625 -11.86088,-35.33125 -24.6875,-35.25 z m 292.8125,0.25 c 1.78375,2.52625 2.61,5.43 2.625,7.84375 l 0.25,39.71875 c 0.015,2.42 -0.77625,5.035 -2.53125,7.59375 l 12.34375,0.46875 c -1.77875,-2.5725 -2.61,-5.20625 -2.625,-7.625 l -0.28125,-47.625 -9.78125,-0.375 z m -25.25,18 c -6.9225,0.0438 -12.54,8.18125 -12.46875,19.4375 0.0788,12.6225 4.945,17.985 12.0625,17.9375 5.6,-0.0338 9.13375,-3.47625 9.25,-8 0.095,-3.05625 -1.645,-5.34625 -4.03125,-5.625 1.05625,1.82625 0.6075,8.1825 -4.1875,8.21875 -3.53875,0.0163 -5.465,-4.23875 -5.5625,-11.15625 6.745,2.43125 13.90125,-2.24125 14.125,-9.96875 0.12875,-4.59875 -2.47375,-10.8825 -9.1875,-10.84375 z m -13.96875,0.71875 -12.25,0.0625 c 1.76875,2.475 2.61375,5.07 2.625,7.46875 l 0.0937,17.71875 c -2.93625,5.205 -6.6875,4.41 -6.71875,-0.75 l -0.0937,-16.6875 c -0.0138,-2.4 -0.52875,-5.015 -1.59375,-7.625 l -8.625,-0.0312 c 2.2325,2.515 3.075,5.07 3.09375,7.46875 l 0.125,17.96875 c 0.0863,14.11637 10.2,12.74375 13.875,5.84375 l 0,4.1875 9.6875,0.0937 c -1.76125,-2.44375 -2.57625,-5.2975 -2.59375,-7.6875 l -0.125,-20.40625 c -0.0113,-2.39875 0.7775,-5.03375 2.5,-7.625 z m -43.46875,0.0625 c -4.54375,0.0275 -10.21125,7.7925 -10.53125,19.15625 -0.3075,10.4725 3.2725,17.70125 9.875,17.65625 3.46,-0.0175 6.13,-2.91875 7.15625,-5.125 0.015,-0.03 0.0537,-0.0562 0.0625,-0.0937 l 0.21875,35.71875 9.65625,-6.71875 c -1.7625,-1.21 -2.585,-3.51513 -2.59375,-5.90625 l -0.3125,-46.90625 c -0.0125,-2.39625 0.8025,-5.02 2.53125,-7.65625 l -9.71875,0.1875 c 0.006,1.30375 0.0225,2.6875 0.0312,4.0625 -0.009,-0.0375 -0.0188,-0.0538 -0.0312,-0.0937 -1.0525,-2.18875 -2.89375,-4.31125 -6.34375,-4.28125 z m -13.1875,0.4375 c -2.6505,0.11415 -5.46797,2.09063 -7.125,5.0625 l -0.0312,-4.21875 -9.65625,0.5625 c 1.76875,2.32625 2.57875,5.14125 2.59375,7.53125 l 0.125,20.5 c 0.0163,2.395 -0.76125,5.06125 -2.5,7.75 l 12.21875,-0.625 c -1.75875,-2.3925 -2.575,-4.95625 -2.59375,-7.34375 l -0.125,-17.90625 c 2.88875,-4.8325 6.54375,-3.72 8.125,0.0937 l 3.2812,-9.4062 c -1.18875,-1.45266 -2.7222,-2.06849 -4.3125,-2 z m 70.8125,4.28125 c 1.73125,-0.01 2.64375,1.69625 2.5625,4.09375 -0.0738,2.77125 -0.7375,6.65375 -7.5625,7.3125 0.45,-6.415 1.98125,-11.3875 5,-11.40625 z m -128.71875,0.46875 c -2.95178,0.0648 -6.24117,2.62688 -8.03125,6.25 l -0.0312,-4.40625 -9.7813,1.65625 c 1.78,2.14375 2.61125,4.8975 2.625,7.3125 l 0.125,20.65625 c 0.0112,2.42863 -0.78375,5.226 -2.53125,8.125 l 12.34375,-1.9375 c -1.765,-2.23237 -2.585,-4.7 -2.59375,-7.125 l -0.125,-18.03125 c 2.92,-5.4875 6.69125,-4.79625 8.3125,-1.0625 l 3.3125,-9.84375 c -1.0207,-1.13203 -2.28328,-1.62319 -3.625,-1.59375 z m -91.96875,0.40625 -9.75,3 c 1.79,1.915 2.61625,4.56125 2.625,6.96875 l 0.25,42.34375 c 0.0137,2.41887 -0.775,5.33638 -2.53125,8.5625 l 12.34375,-4.1875 c -1.77625,-1.91012 -2.61,-4.2085 -2.625,-6.625 l -0.3125,-50.0625 z m 165.03125,1.375 c 1.895,-0.015 3.29375,1.2725 4.40625,3.5 0.009,0.0275 0.02,0.0462 0.0312,0.0625 l 0.0937,11.75 c -0.025,0.105 -0.0675,0.24875 -0.0625,0.40625 0.015,3.02875 -1.81875,7.10375 -4.84375,7.125 -2.80125,0.0125 -4.7875,-4.44875 -4.59375,-11.375 0.20875,-7.35 2.39125,-11.455 4.96875,-11.46875 z m -101.1875,2.4375 c -0.39209,0.0196 -0.79641,0.0797 -1.21875,0.15625 -6.96125,1.2525 -11.98375,8.795 -11.90625,21.4375 0.0675,11.62613 6.2925,17.49262 13.0625,16.21875 5.52625,-1.04888 8.805,-4.62863 8.78125,-9.1875 -0.0213,-3.09 -1.86625,-5.1725 -4.28125,-5.15625 1.1275,1.7175 0.9575,7.98775 -3.9375,8.8125 -3.57125,0.604 -5.6675,-3.5775 -6,-10.5625 6.89,1.5975 13.95875,-3.9975 13.90625,-11.8125 -0.0269,-4.35117 -2.52489,-10.20072 -8.40625,-9.90625 z m -22.5625,4.53125 c -3.02609,0.20469 -6.48937,3.17687 -8.34375,7.125 l -0.0312,-4.21875 -9.78125,2.53125 c 1.7725,1.9925 2.60875,4.67375 2.625,7.09375 l 0.15625,21.40625 c 0.0163,2.40875 -0.79375,5.28763 -2.53125,8.375 l 12.34375,-3.28125 c -1.78875,-2.0425 -2.6075,-4.42725 -2.625,-6.84375 l -0.125,-18.75 c 2.96625,-5.9325 6.74625,-5.83625 6.78125,-0.625 l 0.12495,17.4375 c 0.0125,2.40862 0.51125,4.96 1.59375,7.34375 l 9.625,-2.34375 c -2.76,-1.84525 -4.01625,-4.146 -4.03125,-6.5625 l -0.125,-19.1875 c -0.0425,-7.12437 -2.63016,-9.70469 -5.65625,-9.5 z m 22.03125,1.09375 c 0.1047,-0.004 0.21569,-0.009 0.3125,0 1.35536,0.12472 2.08062,1.74219 2.09375,3.875 0.0137,2.8 -0.5075,6.76625 -7.375,8.28125 0.24,-6.47125 1.6925,-11.52875 4.65625,-12.125 0.10938,-0.0225 0.2078,-0.0268 0.3125,-0.0312 z m -47.46875,5.84375 c -0.32363,-0.004 -0.64248,0.0148 -0.96875,0.0312 -0.87004,0.0439 -1.74531,0.16031 -2.5625,0.375 -4.84875,1.29375 -8.34625,5.21125 -8.3125,10.78125 0.0488,7.74738 10.49625,12.59775 10.53125,18.34375 0.015,2.81888 -1.305,4.36225 -3.375,4.375 -4.45,0.0298 -4.06375,-6.86762 -2.25,-8.125 -2.83,-0.23 -5.49125,2.77738 -5.46875,5.875 0.03,4.55612 4.13375,8.835 9.34375,7.4375 5.04875,-1.34912 8.695,-5.11137 8.65625,-11.0625 -0.055,-9.1265 -10.24375,-13.16125 -10.28125,-19.15625 -0.0112,-2.395 1.84625,-3.0275 2.9375,-3.03125 1.7075,-0.0113 3.52375,1.63875 5.125,3.8125 l 2.0625,-8.5 c -1.03277,-0.60949 -3.1721,-1.12775 -5.4375,-1.15625 z m -49.40625,2.6875 c -0.92137,14.305 -5.858,25.14162 -11.625,32.1875 l -0.15625,-26.25 c 3.92137,-2.38875 7.97312,-4.405 11.78125,-5.9375 z m 20.15625,6.65625 -9.78125,3.28125 c 1.78375,1.86625 2.60625,4.45137 2.625,6.875 l 0.125,22.28125 c 0.0137,2.416 -0.78,5.376 -2.53125,8.65625 l 12.34375,-4.53125 c -1.77875,-1.8525 -2.6075,-4.13875 -2.625,-6.5625 l -0.15625,-30 z m -42.03125,6.6875 0.1875,27.15625 c -1.87787,0.87112 -3.65625,1.331 -5.21875,1.34375 -3.95112,0.0239 -6.71525,-2.52887 -6.75,-7.8125 -0.0444,-7.40238 4.91263,-14.61613 11.78125,-20.6875 z m 259.28125,7.8125 c -4.06468,-0.0109 -8.24766,0.003 -12.5625,0.0312 -3.89375,0.0127 -7.74375,0.0689 -11.53125,0.125 l 0.0625,9.28125 c 30.52,1.01025 58.46375,5.72125 63.65625,7.90625 l 22.4375,-15.71875 c -11.55,-0.59467 -33.60977,-1.54893 -62.0625,-1.625 z m -37.03125,0.4375 c -35.7409,1.0775 -66.64772,4.09554 -95.1875,9.21875 -3.74135,0.67161 -7.4283,1.37947 -11.09375,2.125 -27.7425,5.65375 -54.6175,13.51125 -84.90625,25.03125 -3.7225,1.42388 -6.59425,1.829 -7.8125,-1.6875 -1.06937,-3.0225 1.39187,-5.94862 5.0625,-7 -4.3615,-3.2885 -13.24813,1.835 -10.78125,9.46875 2.041,6.26612 7.7025,7.99275 14.59375,5.1875 58.37375,-23.66213 111.50375,-33.03862 189.8125,-33.53125 0.1275,-0.007 0.24375,-0.007 0.375,0 l -0.0625,-8.8125 z"
       id="path22"
       style="fill:#a7a056;fill-opacity:1;fill-rule:nonzero;stroke:none" />
    <path
       d="m 398.98893,552.53663 c -2.84375,0.0137 -10.50875,4.37 -10.46875,10.5 0.0525,8.2775 9.54625,10.58875 9.59375,18.53125 l 0.125,24.6875 c 0.005,0.97375 0.0737,1.87625 0.15625,2.71875 -0.62375,5.3675 -3.12,9.61613 -5.96875,10.75 2.20875,0.7035 6.59875,-0.7125 8.59375,-3.1875 1.34,1.60125 3.01875,2.291 4.8125,2.28125 4.2775,-0.0327 8.96375,-3.095 10.71875,-8.25 0.0312,-0.095 0.0725,-0.1825 0.0937,-0.28125 l 0.0312,6.625 11.75,-0.84375 c -2.14375,-2.79625 -3.17,-6.20625 -3.1875,-9.09375 l -0.21875,-36.53125 c -0.02,-2.90375 0.95625,-6.17875 3.0625,-9.5 l -14.84365,1.15625 c 2.14375,2.8375 3.14125,5.88125 3.15625,8.78125 l 0.1875,32.40625 c -1.95625,4.32625 -4.84125,6.1725 -6.75,6.1875 -1.685,0.025 -2.92,-1.2775 -2.9375,-4.53125 l -0.15625,-25.375 c -0.0625,-10.1025 -9.9875,-13.0975 -10.03125,-20.53125 -0.0188,-2.755 1.0275,-4.93625 2.28125,-6.5 z m 129.125,6.625 c 1.77875,2.4975 2.64,5.4 2.65625,7.8125 l 0.25,39.71875 c 0.0138,2.415 -0.81375,5.02875 -2.5625,7.625 l 12.375,0.25 c -1.78375,-2.54875 -2.6075,-5.17125 -2.625,-7.59375 l -0.3125,-47.625 -9.78125,-0.1875 z m -278.375,0.0937 c -12.833,0.0812 -21.6905,9.24375 -25.59375,12.78125 2.07175,0.82625 4.41263,2.55125 4.4375,6.25 0.0239,3.685 -6.85112,19.34375 -6.8125,25.5 0.0288,4.74625 2.897,7.03625 6.5,6.71875 3.1255,-0.2875 5.8325,-2.66375 5.8125,-6.15625 -0.0205,-3.34125 -3.41262,-5.12375 -5.96875,-4.15625 -0.0806,-13.1587 10.08888,-24.4737 20.03125,-24.5312 9.53612,-0.0662 15.17137,8.555 15.25,20.875 0,0.0675 -0.003,0.1 0,0.15625 -3.83113,1.27375 -7.9155,3.04875 -11.96875,5.1875 l -0.0312,-7.09375 c -0.0111,-2.19375 0.78812,-7.21125 2.375,-9.21875 l -17.1563,6.59375 c 3.17388,1.5325 4.67475,4.20875 4.6875,6.375 l 0.0312,9.5 c -12.34037,8.59125 -22.47125,20.0575 -22.40625,30.75 0.0541,8.94237 4.71488,13.0375 11.4375,13 3.72125,-0.0327 7.52488,-0.999 11.25,-2.6875 l 0.125,20.59375 c 0.0288,4.59375 -3.75,8.34862 -7.5,9.03125 1.29688,-0.99762 2.23838,-2.98787 2.21875,-5.59375 -0.018,-3.3965 -2.14062,-6.39013 -5.25,-6.375 -3.12012,0.0235 -6.09087,2.75738 -6.0625,7.34375 0.0405,6.62013 5.91213,10.33888 12.03125,7.5 l 19.34375,-8.75 c -3.1845,-1.32513 -4.65863,-4.30125 -4.6875,-7.71875 l -0.15625,-22.53125 c 11.8385,-10.00988 21.2975,-26.8975 22.59375,-43.875 0.64625,-0.0875 1.27375,-0.1425 1.875,-0.1875 -0.35375,0.84375 -0.57125,1.78125 -0.5625,2.71875 0.02,3.66625 2.2875,5.16875 4.375,5 2.53375,-0.1925 4.6175,-2.62625 4.59375,-6.15625 -0.0238,-3.51375 -1.87,-5.94 -10.125,-5.625 -0.1525,-22.33125 -11.86612,-35.31 -24.6875,-35.21875 z m 292.8125,0.2188 c 1.78375,2.52625 2.61375,5.42125 2.625,7.84375 l 0.25,39.71875 c 0.02,2.41375 -0.77875,5.0475 -2.53125,7.625 l 12.375,0.4375 c -1.79125,-2.57375 -2.6075,-5.2 -2.625,-7.625 l -0.3125,-47.625 -9.78125,-0.375 z m -25.25,18 c -6.92,0.0438 -12.50625,8.1775 -12.4375,19.4375 0.0813,12.6325 4.90625,17.99125 12.03125,17.9375 5.60125,-0.0338 9.1625,-3.4875 9.28125,-8 0.0913,-3.06 -1.67625,-5.3175 -4.0625,-5.59375 1.06375,1.82 0.64125,8.185 -4.15625,8.21875 -3.5325,0.025 -5.50375,-4.2325 -5.59375,-11.15625 6.745,2.43 13.90875,-2.2725 14.125,-10 0.12625,-4.59625 -2.4675,-10.88375 -9.1875,-10.84375 z m -13.9375,0.71875 -12.25,0.0625 c 1.7825,2.48125 2.585,5.0525 2.59375,7.4375 l 0.125,17.75 c -2.92625,5.2075 -6.71375,4.4125 -6.75,-0.75 l -0.0937,-16.6875 c -0.0188,-2.3925 -0.5175,-5.04 -1.59375,-7.65625 l -8.625,0 c 2.24,2.51 3.08,5.07875 3.09375,7.46875 l 0.125,17.96875 c 0.09,14.12125 10.2025,12.74125 13.875,5.84375 l 0.0312,4.1875 9.6875,0.125 c -1.77,-2.455 -2.6125,-5.33375 -2.625,-7.71875 l -0.125,-20.40625 c -0.0188,-2.3975 0.7875,-5.03 2.53125,-7.625 z m -43.5,0.0625 c -4.53375,0.035 -10.21,7.79125 -10.53125,19.15625 -0.3,10.47875 3.28875,17.70125 9.90625,17.65625 3.4575,-0.0263 6.1375,-2.88125 7.15625,-5.09375 0.015,-0.0338 0.02,-0.095 0.0312,-0.125 l 0.21875,35.75 9.6875,-6.75 c -1.77375,-1.21137 -2.60875,-3.51275 -2.625,-5.90625 l -0.28125,-46.90625 c -0.007,-2.38375 0.76375,-5.0375 2.5,-7.65625 l -9.6875,0.1875 c 0,1.3 0.0213,2.69125 0.0312,4.0625 -0.0213,-0.035 -0.0462,-0.0612 -0.0625,-0.0937 -1.0525,-2.19 -2.88,-4.3025 -6.34375,-4.28125 z m -13.15625,0.46875 c -2.64841,0.11429 -5.46719,2.06484 -7.125,5.03125 l -0.0312,-4.1875 -9.6875,0.5625 c 1.76375,2.31875 2.60875,5.1175 2.625,7.5 l 0.125,20.53125 c 0.0163,2.39125 -0.7925,5.04125 -2.53125,7.71875 l 12.25,-0.625 c -1.77,-2.3925 -2.6025,-4.9225 -2.625,-7.3125 l -0.0938,-17.9375 c 2.8725,-4.84375 6.52375,-3.7125 8.09375,0.0937 l 3.28125,-9.4062 c -1.18594,-1.44844 -2.6922,-2.03733 -4.28125,-1.96875 z m 70.8125,4.25 c 1.7375,-0.0137 2.595,1.72125 2.53125,4.125 -0.0788,2.76125 -0.72875,6.63125 -7.5625,7.28125 0.44125,-6.41 2.01125,-11.38875 5.03125,-11.40625 z m -128.71875,0.46875 c -2.95079,0.0657 -6.26211,2.6243 -8.0625,6.25 l -0.0312,-4.40625 -9.75,1.65625 c 1.7725,2.15625 2.61,4.90125 2.625,7.3125 l 0.125,20.6875 c 0.015,2.41125 -0.79,5.189 -2.53125,8.09375 l 12.34375,-1.9375 c -1.785,-2.23137 -2.61375,-4.71 -2.625,-7.125 l -0.125,-18 c 2.93625,-5.505 6.695,-4.81875 8.3125,-1.09375 l 3.34375,-9.84375 c -1.01914,-1.13203 -2.28373,-1.62364 -3.625,-1.59375 z m -92,0.40625 -9.75,3.03125 c 1.78125,1.915 2.60875,4.5075 2.625,6.9375 l 0.28125,42.34375 c 0.0163,2.40725 -0.81125,5.35888 -2.5625,8.59375 l 12.375,-4.21875 c -1.7725,-1.90863 -2.64125,-4.20413 -2.65625,-6.625 l -0.3125,-50.0625 z m 165.0625,1.375 c 1.88875,-0.02 3.25875,1.26875 4.375,3.5 0.02,0.0163 0.0475,0.0588 0.0625,0.0937 l 0.0625,11.71875 c -0.03,0.11 -0.0375,0.2475 -0.0312,0.40625 0.0125,3.02625 -1.82875,7.13125 -4.84375,7.15625 -2.81625,0.0137 -4.78875,-4.47625 -4.59375,-11.40625 0.21,-7.345 2.39125,-11.46 4.96875,-11.46875 z m -101.21875,2.4375 c -0.39287,0.0198 -0.79547,0.0794 -1.21875,0.15625 -6.95125,1.26125 -11.985,8.7925 -11.90625,21.4375 0.0725,11.61875 6.335,17.4965 13.09375,16.21875 5.52375,-1.0425 8.77875,-4.63238 8.75,-9.1875 -0.0188,-3.0875 -1.82875,-5.1675 -4.25,-5.15625 1.13,1.72375 0.9625,7.99113 -3.9375,8.8125 -3.55625,0.6015 -5.67625,-3.53875 -6,-10.53125 6.88875,1.60625 13.95375,-4.02625 13.90625,-11.84375 -0.0328,-4.34297 -2.54444,-10.20288 -8.4375,-9.90625 z m -22.53125,4.53125 c -3.02531,0.20594 -6.52187,3.17813 -8.375,7.125 l -0.0312,-4.21875 -9.75,2.53125 c 1.78625,2.00125 2.61375,4.67375 2.625,7.09375 l 0.125,21.40625 c 0.0188,2.4165 -0.77375,5.27888 -2.53125,8.375 l 12.34375,-3.28125 c -1.78125,-2.04112 -2.6125,-4.40138 -2.625,-6.8125 l -0.0938,-18.78125 c 2.9525,-5.92125 6.7475,-5.84125 6.78125,-0.625 l 0.0937,17.4375 c 0.0175,2.41737 0.51625,4.9575 1.59375,7.34375 l 9.65625,-2.34375 c -2.75875,-1.84863 -4.05,-4.14738 -4.0625,-6.5625 l -0.12495,-19.1875 c -0.0431,-7.12687 -2.59969,-9.70594 -5.625,-9.5 z m 22.3125,1.09375 c 1.34984,0.13486 2.08172,1.75203 2.09375,3.875 0.015,2.8 -0.515,6.77125 -7.375,8.28125 0.23875,-6.4775 1.7225,-11.5275 4.6875,-12.125 0.21781,-0.0431 0.40092,-0.0505 0.59375,-0.0312 z m -47.75,5.84375 c -0.32344,-0.004 -0.64183,0.0145 -0.96875,0.0312 -0.87178,0.0447 -1.74219,0.19 -2.5625,0.40625 -4.845,1.28875 -8.3425,5.16375 -8.3125,10.71875 0.045,7.76375 10.4975,12.63238 10.53125,18.375 0.015,2.80625 -1.32875,4.36625 -3.40625,4.375 -4.46,0.0287 -4.06875,-6.83737 -2.25,-8.09375 -2.83875,-0.23487 -5.46125,2.78025 -5.4375,5.875 0.03,4.56 4.095,8.79 9.3125,7.40625 5.0475,-1.34375 8.72625,-5.11275 8.6875,-11.0625 -0.055,-9.13138 -10.27375,-13.1625 -10.3125,-19.15625 -0.0137,-2.41125 1.8525,-3.015 2.9375,-3.03125 1.71625,-0.009 3.52125,1.635 5.125,3.8125 l 2.0625,-8.5 c -1.02211,-0.60949 -3.14218,-1.12884 -5.40625,-1.15625 z m -49.4375,2.6875 c -0.90712,14.295 -5.83,25.13525 -11.59375,32.1875 l -0.15625,-26.21875 c 3.92038,-2.405 7.95562,-4.43625 11.75,-5.96875 z m 20.15625,6.65625 -9.78125,3.28125 c 1.78375,1.86875 2.645,4.494 2.65625,6.90625 l 0.125,22.28125 c 0.0188,2.40863 -0.78,5.35 -2.53125,8.625 l 12.34375,-4.5 c -1.78625,-1.85788 -2.64375,-4.17488 -2.65625,-6.59375 l -0.15625,-30 z m 281.6875,1.75 c -1.2325,0.0125 -2.28125,0.43375 -3.15625,1.34375 -0.87875,0.9 -1.32125,1.9925 -1.3125,3.25 0.006,1.28125 0.46375,2.33125 1.34375,3.21875 0.8775,0.89375 1.95875,1.351 3.1875,1.34375 1.26125,-0.0122 2.315,-0.46225 3.1875,-1.375 0.88125,-0.895 1.32125,-1.9775 1.3125,-3.25 -0.0125,-1.2575 -0.4525,-2.34125 -1.34375,-3.21875 -0.89125,-0.8875 -1.96125,-1.3225 -3.21875,-1.3125 z m 0,0.59375 c 1.1,-0.008 2.025,0.4 2.78125,1.15625 0.7675,0.76625 1.14875,1.67875 1.15625,2.78125 0.01,1.0975 -0.3675,2.02875 -1.125,2.8125 -0.73375,0.78125 -1.64875,1.17975 -2.75,1.1875 -1.06625,0.005 -2.0125,-0.3575 -2.78125,-1.125 -0.7425,-0.77375 -1.12,-1.71125 -1.125,-2.8125 -0.006,-1.09 0.3775,-2.02625 1.125,-2.8125 0.7575,-0.7725 1.65875,-1.1775 2.71875,-1.1875 z m -1.8125,1.4375 0.0312,5.03125 0.84375,0 0,-1.96875 0.6875,-0.0312 c 0.4825,0 0.81125,0.0462 1,0.15625 0.31375,0.19125 0.5,0.58125 0.5,1.15625 l 0,0.40625 0.0312,0.15625 c 0.0113,0.0263 0,0.05 0,0.0625 0.006,0.015 0,0.025 0,0.0312 l 0.8125,0 0,-0.0312 c -0.0288,-0.04 -0.0562,-0.145 -0.0625,-0.28125 -0.01,-0.1275 -0.0288,-0.25125 -0.0312,-0.375 l 0,-0.375 c 0,-0.25625 -0.0663,-0.49125 -0.25,-0.75 -0.175,-0.25875 -0.4875,-0.44125 -0.875,-0.5 0.30875,-0.0475 0.54,-0.13375 0.71875,-0.25 0.31875,-0.21625 0.47375,-0.55 0.46875,-1 -0.002,-0.6275 -0.25,-1.03875 -0.75,-1.25 -0.2975,-0.12375 -0.75875,-0.19375 -1.375,-0.1875 l -1.75,0 z m 0.84375,0.625 0.78125,0 c 0.49375,0 0.8725,0.0575 1.09375,0.1875 0.2275,0.11875 0.3125,0.36625 0.3125,0.71875 0.006,0.395 -0.16,0.65 -0.5,0.78125 -0.18875,0.075 -0.46625,0.125 -0.84375,0.125 l -0.8125,0 -0.0312,-1.8125 z m -322.71875,2.28125 0.15625,27.15625 c -1.88675,0.8765 -3.65625,1.36625 -5.21875,1.375 -3.95412,0.0327 -6.71537,-2.55762 -6.75,-7.84375 -0.0459,-7.40375 4.94475,-14.60475 11.8125,-20.6875 z m 259.28125,7.8125 c -4.06435,-0.0117 -8.24828,0.003 -12.5625,0.0312 -3.9075,0.0225 -7.7425,0.0712 -11.53125,0.125 l 0.0625,9.25 c 30.5125,1.01463 58.4325,5.77738 63.625,7.96875 l 22.4375,-15.75 c -11.54125,-0.58745 -33.58081,-1.54336 -62.03125,-1.625 z m -37.03125,0.46875 c -40.4325,1.22025 -74.6975,4.87887 -106.3125,11.3125 -27.76375,5.65913 -54.61125,13.50738 -84.90625,25.03125 -3.734,1.42725 -6.58062,1.8535 -7.8125,-1.65625 -1.06113,-3.04975 1.41112,-6.01513 5.0625,-7.0625 -4.34525,-3.27787 -13.22263,1.86075 -10.75,9.5 2.02887,6.25238 7.706,7.98625 14.59375,5.1875 58.36375,-23.6675 111.48125,-33.03275 189.78125,-33.53125 l 0.375,0 -0.0312,-8.78125 z"
       id="path54"
       style="fill:#005832;fill-opacity:1;fill-rule:nonzero;stroke:none" />
    <path
       d="m 361.04893,427.88663 c -7.05,-10.69375 -13.24,-6.64375 -21.78875,-6.64375 -13.0575,0 -11.3375,-6.82875 -20.96625,-6.82875 -10.68,0 -23.95,8.98625 -28.86125,8.98625 -13.04625,0 -11.075,15.1125 -20.102,19.275 -5.13912,2.355 -19.6875,11.33 -14.12887,32.53 0,5.34875 -3.63675,10.27 -3.63675,23.76875 0,16.05625 19.89512,23.97125 19.89512,31.8925 0,7.9175 14.35375,20.18625 28.0225,18.62875 11.31375,-1.29 7.89,10.48375 25.655,3.64375 7.04125,-2.14 12.905,7.195 32.29,-1.92 15.34375,-7.2025 7.91875,-21.4175 23.10125,-24.63125 4.865,-0.9375 13.015,-9.50375 6.9975,-27.52625 -2.7625,-8.3575 5.095,-9.2825 5.095,-26.42375 0,-11.8225 -14.575,-16.0125 -14.575,-25.28 0,-12.27875 -12.1225,-12.0575 -16.9975,-19.47125"
       id="path88"
       style="fill:#ffffff;fill-opacity:1;fill-rule:nonzero;stroke:none" />
    <path
       d="m 361.04893,427.88663 c -7.05,-10.69375 -13.24,-6.64375 -21.78875,-6.64375 -13.0575,0 -11.3375,-6.82875 -20.96625,-6.82875 -10.68,0 -23.95,8.98625 -28.86125,8.98625 -13.04625,0 -11.075,15.1125 -20.102,19.275 -5.13912,2.355 -19.6875,11.33 -14.12887,32.53 0,5.34875 -3.63675,10.27 -3.63675,23.76875 0,16.05625 19.89512,23.97125 19.89512,31.8925 0,7.9175 14.35375,20.18625 28.0225,18.62875 11.31375,-1.29 7.89,10.48375 25.655,3.64375 7.04125,-2.14 12.905,7.195 32.29,-1.92 15.34375,-7.2025 7.91875,-21.4175 23.10125,-24.63125 4.865,-0.9375 13.015,-9.50375 6.9975,-27.52625 -2.7625,-8.3575 5.095,-9.2825 5.095,-26.42375 0,-11.8225 -14.575,-16.0125 -14.575,-25.28 0,-12.27875 -12.1225,-12.0575 -16.9975,-19.47125"
       id="path92"
       style="fill:#a6111c;fill-opacity:1;fill-rule:nonzero;stroke:none" />
    <path
       d="m 370.89518,437.50538 c 1.65125,1.93125 3.72,5.835 3.75,9.5 0.0325,10.55375 14.60375,12.23 14.46875,24.34375 -0.1725,16.89125 -7.75375,17.2375 -5.03125,25.46875 5.93,17.775 -3.73,26.59125 -7.5625,27.40625 -14.9725,3.14 -7.29375,16.25625 -22.40625,23.34375 -19.0825,8.9825 -24.2975,-0.28625 -31.25,1.8125 -3.8575,1.47375 -10.7325,1.8475 -12.9375,1.875 0,0 3.11125,0.49875 3.8125,0.9375 2.29875,1.44 6.8925,0.64 10.84375,-0.90625 6.955,-2.095 12.1775,7.37625 31.28125,-1.59375 15.10875,-7.11125 7.6475,-21.31375 22.625,-24.46875 4.7925,-0.895 12.85125,-9.07 6.9375,-26.84375 -2.74375,-8.21625 5.28125,-8.81125 5.28125,-25.71875 0,-11.62125 -14.67,-14.99625 -14.5625,-24.125 0.10125,-6.0975 -2.765,-8.9025 -5.25,-11.03125 z m -90.15625,104.6875 c 10.41625,7.305 19.875,5.8125 19.875,5.8125 -6.59875,-0.8 -19.875,-5.8125 -19.875,-5.8125 z"
       id="path94"
       style="fill:#000000;fill-opacity:1;fill-rule:nonzero;stroke:none" />
    <path
       d="m 326.36893,420.28788 c 0,0 -6.61875,-5.52375 -15.8775,-1.85125 -9.23125,3.67625 -12.98375,5.42625 -17.195,6.64625 -4.2325,1.17875 -9.40875,0 -12.995,6.85375 -3.58125,6.855 -4.06125,8.8475 -12.355,14.44375 -8.28812,5.58875 -11.855,12.52625 -11.07562,18.755 0.80175,6.22625 1.35637,10.52375 -0.2325,18.04375 -1.59863,7.4975 -5.2685,17.07375 3.254,27.22125 0,0 -5.04788,-10.48375 -2.544,-20.6775 3.72512,-15.12625 2.85887,-19.7075 2.71487,-22.445 -0.17087,-2.705 -2.29987,-10.3425 7.82813,-17.64875 10.00387,-7.19125 12.52137,-8.64625 15.04262,-15.23625 3.19375,-8.315 9.2725,-3.24125 23.6475,-11.735 5.7775,-3.43375 16.37,-3.91375 19.7875,-2.37"
       id="path98"
       style="fill:#ffffff;fill-opacity:1;fill-rule:nonzero;stroke:none" />
    <path
       d="m 321.86393,429.53663 c -31.51625,0 -57.125,25.61625 -57.125,57.1875 0,31.515 25.60875,57.15625 57.125,57.15625 31.44875,0 57.0625,-25.64125 57.0625,-57.15625 0,-31.57125 -25.61375,-57.1875 -57.0625,-57.1875 z m 0,3.46875 c 29.5225,0 53.5625,24.095 53.5625,53.71875 0,29.565 -24.04,53.6875 -53.5625,53.6875 -29.59375,0 -53.625,-24.1225 -53.625,-53.6875 0,-29.62375 24.03125,-53.71875 53.625,-53.71875 z m -5.65625,1.34375 -2.4375,1.40625 0.28125,0.75 2.84375,-0.9375 -0.6875,-1.21875 z m 2.625,1.75 -2.3125,0.3125 -1.0625,3.15625 -1.9375,-2.71875 -2.9375,0.4375 3.6875,4.65625 0.53125,3.6875 2.5625,-0.375 -0.53125,-3.6875 2,-5.46875 z m 7.6875,0.125 -1.375,8.75 2.6875,0.4375 0.53125,-3.15625 1.34375,0.1875 c 0.83125,0.125 1.7425,0.14875 2.5,-0.28125 0.72625,-0.42375 1.20625,-1.1425 1.34375,-1.96875 0.14,-0.9375 -0.2325,-1.9025 -0.9375,-2.5625 -0.67125,-0.56125 -1.6775,-0.7225 -2.53125,-0.875 l -3.5625,-0.53125 z m -18.09375,1.65625 -2.34375,0.875 -1.0625,4.21875 -1.21875,-3.40625 -2.375,0.84375 2.96875,8.3125 2.375,-0.875 -0.65625,-1.90625 0.4375,-1.53125 2.59375,2.625 2.78125,-1.03125 -4.5,-4.3125 1,-3.8125 z m 28.28125,0.28125 -3.15625,8.28125 2.5625,0.96875 1.1875,-3.15625 0.8125,0.3125 0,3.59375 2.8125,1.0625 -0.15625,-4.15625 c 1.13375,-0.0588 1.88,-0.5425 2.28125,-1.625 0.3575,-0.77 0.3175,-1.6375 -0.25,-2.3125 -0.45125,-0.6625 -1.215,-1.0625 -1.9375,-1.34375 l -4.15625,-1.625 z m -7.8125,0.53125 0.78125,0.125 c 0.60125,0.115 1.25625,0.2475 1.125,1.03125 -0.11625,0.79875 -0.85625,0.72625 -1.46875,0.625 l -0.6875,-0.0937 0.25,-1.6875 z m 9.6875,2.25 1,0.34375 c 0.255,0.0838 0.53,0.2125 0.71875,0.40625 0.19875,0.2125 0.2225,0.53375 0.125,0.8125 -0.28,0.7025 -0.9675,0.55375 -1.5,0.34375 l -0.9375,-0.34375 0.59375,-1.5625 z m -41,1.90625 c -0.71609,0.032 -1.45875,0.3125 -2.09375,0.71875 -0.79375,0.435 -1.4775,1.0575 -1.84375,1.875 -0.33375,0.78375 -0.27625,1.74125 0.1875,2.46875 1.08375,1.795 3.04375,1.16625 4.625,0.5625 0.38625,-0.1375 1.03875,-0.4162 1.3125,0.0312 0.26375,0.4325 -0.33625,0.82125 -0.625,1.03125 -0.66375,0.39375 -1.3025,0.4725 -1.90625,-0.0625 l -1.9375,1.71875 c 1.45,1.375 3.255,1.17375 4.8125,0.21875 1.555,-0.96625 2.89125,-2.845 1.78125,-4.65625 -0.4925,-0.82375 -1.31125,-1.275 -2.28125,-1.21875 -0.86625,0.07 -1.705,0.39375 -2.5,0.6875 -0.32125,0.0963 -0.915,0.4075 -1.15625,0 -0.24125,-0.40875 0.1625,-0.77125 0.46875,-0.96875 0.55,-0.33375 1.09875,-0.40245 1.65625,0.0312 l 1.53125,-1.75 c -0.62687,-0.50563 -1.31516,-0.71953 -2.03125,-0.6875 z m 50.75,0.59375 -7.125,5.9375 1.84375,1.25 1.4375,-1.21875 2,1.3125 -0.5,1.75 2.28125,1.46875 2.4375,-8.9375 -2.375,-1.5625 z m -0.4375,2.8125 -0.75,2.53125 -1.21875,-0.75 1.96875,-1.78125 z m -60.21875,0.65625 -0.90625,0.875 0,1.40625 -1.28125,-0.125 -0.96875,0.9375 2.34375,0.25 0.90625,-0.96875 -0.0937,-2.375 z m 2.21875,0.59375 -1.625,1.5 1.71875,1.8125 1.8125,1.65625 0,0.0312 -5.53125,-1.53125 -1.875,1.75 6.09375,6.40625 1.5625,-1.53125 -2.8125,-2.9687 c -0.42,-0.4375 -0.68375,-0.6275 -1.15625,-0.9375 l -0.0625,-0.0625 0,-0.0625 1.65625,0.625 4.65625,1.28125 1.65625,-1.5625 -6.09375,-6.40625 z m 31.96875,0.125 c -21.575,0 -39.03125,17.50375 -39.03125,39.09375 0,21.53125 17.45625,39.0625 39.03125,39.0625 21.54125,0 38.96875,-17.53125 38.96875,-39.0625 0,-21.59 -17.4275,-39.09375 -38.96875,-39.09375 z m 33.25,0.65625 -1.40625,1.46875 2.625,2.5625 -6.40625,0.90625 -1.15625,1.21875 5.21875,5.09375 1.5,-1.5 -2.8125,-2.6875 6.21875,-0.96875 1.1875,-1.21875 -4.96875,-4.875 z m -33.25,3.15625 c 19.375,0 35.21875,15.80875 35.21875,35.28125 0,19.415 -15.84375,35.25 -35.21875,35.25 -19.46375,0 -35.25,-15.835 -35.25,-35.25 0,-19.4725 15.78625,-35.28125 35.25,-35.28125 z m -39.4375,3.5625 -3.78125,5.40625 7.25,5.15625 3.8125,-5.5 -1.71875,-1.1875 -2.28125,3.25 -1.1875,-0.84375 1.84375,-2.625 -1.59375,-1.125 -1.875,2.625 -1.0625,-0.75 2.3125,-3.21875 -1.71875,-1.1875 z m 79.1875,0.0312 -7.3125,5.03125 2.03125,2.84375 c 0.68375,1.00625 1.545,1.7425 2.78125,1.9375 1.15375,0.21125 2.385,-0.15375 3.34375,-0.8125 1.03,-0.73 1.74,-1.74375 1.9375,-3.0625 0.20125,-1.30375 -0.225,-2.235 -0.9375,-3.28125 l -1.84375,-2.65625 z m -0.125,3.375 0.1875,0.21875 c 0.35625,0.50375 0.59875,0.8275 0.40625,1.5 -0.2,0.5625 -0.73125,1.1525 -1.1875,1.5 -0.49625,0.32375 -1.04125,0.65875 -1.65625,0.6875 -0.26875,0.0287 -0.525,-0.0475 -0.78125,-0.1875 -0.345,-0.1825 -0.4525,-0.38 -0.65625,-0.6875 l -0.21875,-0.3125 3.90625,-2.71875 z m -39.25,2.0938 c -0.0289,0.0126 -0.0667,0.0589 -0.0937,0.0937 -0.11625,0.12625 -0.23875,0.1675 -0.28125,0.53125 -0.045,0.365 0.0525,0.41375 0.15625,0.625 0.0637,0.225 -0.006,0.34875 -0.0625,0.53125 -0.075,0.18375 -0.22,0.3875 -0.3125,0.53125 -0.1175,0.1525 0.4425,0.13505 0.5,0.0937 0.0425,-0.0588 0.11625,-0.20375 0.1875,-0.34375 0.0775,-0.1375 0.0838,-0.16 0.25,-0.21875 0.15,-0.0538 0.26125,-0.06 0.3125,-0.1875 0.0425,-0.15125 0.009,-0.24125 -0.0312,-0.3125 -0.0325,-0.0825 -0.0325,-0.155 0,-0.28125 0.04,-0.0963 0.19,-0.075 0.21875,-0.21875 0.025,-0.1275 0.0387,-0.24 -0.1875,-0.40625 -0.23375,-0.1575 -0.4625,0.11125 -0.5,0.25 -0.002,0.1275 -0.07,0.19505 -0.15625,0.0937 -0.0825,-0.085 -0.0462,-0.235 0,-0.375 0.0462,-0.085 0.1125,-0.18375 0.125,-0.28125 0.0188,-0.0834 -0.0385,-0.16268 -0.125,-0.125 z m -44.6875,1.9375 -2.9375,6.21875 1.8125,0.875 1.59375,-3.25 2.875,5.71875 1.53125,0.71875 3.1875,-6.625 -1.875,-0.875 -1.75,3.5 -2.875,-5.5625 -1.5625,-0.71875 z m 42.5,0.0937 c -0.415,0 -0.44875,0.585 -0.40625,0.78125 0.035,0.18375 -0.01,0.18375 -0.125,0.28125 -0.11125,0.0987 -0.2975,0.325 -0.34375,0.5625 -0.0475,0.2375 -0.0662,0.35625 -0.1875,0.5625 -0.12625,0.23875 -0.2125,0.48 -0.25,0.71875 -0.0188,0.235 0.23625,0.0811 0.3125,-0.0312 0.0762,-0.11 0.21875,-0.34375 0.21875,-0.34375 0,0 0.25,-0.43375 0.25,-0.25 0,0.20875 -0.0625,0.66375 -0.0625,0.875 0,0.2525 -0.0914,0.34875 -0.0312,0.875 0.095,0.53875 -0.07,0.61375 -0.1875,0.78125 -0.095,0.15625 -0.16,0.15625 -0.21875,0 -0.0462,-0.14125 -0.0149,-0.5075 0.0312,-0.71875 0.0362,-0.19625 0.0238,-0.38375 -0.3125,-0.1875 -0.30625,0.16875 -0.625,0.965 -0.625,1.1875 l -0.25,0 0,0.5 -0.90625,0 0,0.875 -9.84375,0 c 0,0 -0.37125,-0.6 -0.8125,-0.9375 -0.0913,-0.0725 -0.22,-0.1275 -0.375,-0.15625 l 0,-0.53125 -0.34375,-0.3125 -0.25,0 0,-0.34375 c 0.13,-0.11375 0.25,-0.375 0.25,-0.375 0,0 0.25125,0.13125 0.15625,-0.34375 -0.0987,-0.5075 0.12375,-0.56875 0.25,-1.0625 0.1125,-0.4775 -0.0987,-0.77 -0.40625,-0.84375 -0.29375,-0.0812 -0.21,0 -0.40625,0 l -0.375,0 c -0.2,0 -0.13375,-0.0812 -0.4375,0 -0.29375,0.0738 -0.51375,0.36625 -0.40625,0.84375 0.115,0.49375 0.32875,0.555 0.25,1.0625 -0.0962,0.475 0.15625,0.34375 0.15625,0.34375 0,0 0.1175,0.21875 0.25,0.34375 l 0,0.375 -0.25,0 -0.34375,0.3125 0,0.625 c -0.3725,0.20125 -0.7375,0.45625 -1.03125,0.90625 l 0.21875,0.75 0,2.6875 -0.4375,0.875 -1.53125,0 0,0.5625 0.5625,0.875 0,1.0625 0.8125,0 0,4.53125 c -0.9225,0.1025 -1.07625,0.73875 -1.09375,1.0625 -0.0175,0.34875 0.28125,0.62875 0.28125,0.78125 0,0.5875 -0.465,0.85375 -0.78125,0.9375 -0.33375,0.0688 -0.53125,0.24 -0.53125,0.5625 l 0,0.625 c -1.99,0.36625 -2.28125,2.085 -2.28125,2.40625 0,0.12625 -0.0362,0.3025 -0.0937,0.46875 l -2.125,0 0,17.46875 12.78125,0 c 0.66625,-0.0125 1.1875,-0.57625 1.1875,-1.21875 0,-0.57875 -0.40375,-1.0575 -0.9375,-1.1875 l 0,-4 -0.71875,0 0,-9.03125 0.71875,-0.65625 0,-1.46875 -1.25,0 c 0,0 0.07,-1.43875 0.875,-2.5625 0.79375,-1.10625 1.52875,-2.445 4.125,-3.03125 l 0.625,0.5625 1.375,0 0.5,-0.5625 c 0,0 1.81,0.2 3.21875,1.65625 1.395,1.44625 1.90625,2.8025 1.90625,4.625 l 3.28125,0 c 0,-1.8225 0.52,-3.17875 1.9375,-4.625 1.39125,-1.45625 3.1875,-1.65625 3.1875,-1.65625 l 0.53125,0.5625 1.34375,0 0.65625,-0.5625 c 2.58375,0.58625 3.32625,1.925 4.125,3.03125 0.78125,1.12375 0.8125,2.5625 0.8125,2.5625 l -1.1875,0 0,1.46875 0.6875,0.65625 0,9.03125 -0.6875,0 0,4 c -0.55375,0.13 -0.96875,0.60875 -0.96875,1.1875 0,0.6425 0.52,1.20625 1.1875,1.21875 l 12.78125,0 0,-17.46875 -2.09375,0 c -0.065,-0.16625 -0.0937,-0.3425 -0.0937,-0.46875 0,-0.32125 -0.32625,-2.04 -2.3125,-2.40625 l 0,-0.625 c 0,-0.3225 -0.18,-0.49375 -0.5,-0.5625 -0.3175,-0.0838 -0.8125,-0.35 -0.8125,-0.9375 0,-0.1525 0.3375,-0.4325 0.3125,-0.78125 -0.0425,-0.32375 -0.1675,-0.96 -1.09375,-1.0625 l 0,-4.53125 0.78125,0 0,-1.0625 0.5625,-0.875 0,-0.5625 -1.5,0 -0.4375,-0.875 0,-2.6875 0.21875,-0.75 c -0.3075,-0.45 -0.67875,-0.705 -1.0625,-0.90625 l 0,-0.625 -0.3125,-0.3125 -0.25,0 0,-0.375 c 0.125,-0.125 0.25,-0.34375 0.25,-0.34375 0,0 0.22625,0.13125 0.125,-0.34375 -0.0675,-0.5075 0.1375,-0.56875 0.25,-1.0625 0.13125,-0.4775 -0.10125,-0.77 -0.375,-0.84375 -0.3275,-0.0812 -0.2725,0 -0.46875,0 l -0.34375,0 c -0.20875,0 -0.13125,-0.0812 -0.4375,0 -0.27625,0.0738 -0.51625,0.36625 -0.40625,0.84375 0.1425,0.49375 0.38125,0.555 0.28125,1.0625 -0.12,0.475 0.125,0.34375 0.125,0.34375 0,0 0.14125,0.26125 0.28125,0.375 l 0,0.34375 -0.28125,0 -0.3125,0.3125 0,0.53125 c -0.15375,0.0287 -0.28625,0.0838 -0.375,0.15625 -0.43,0.3375 -0.84375,0.9375 -0.84375,0.9375 l -9.8125,0 0,-0.875 -0.9375,0 0,-0.5 -0.0937,0 c 0,0 -0.0214,-0.0476 -0.0937,-0.0937 -0.07,-0.025 -0.0762,-0.0575 -0.0937,-0.1875 -0.0163,-0.11125 -0.10125,-0.25 -0.1875,-0.375 -0.0563,-0.1425 -0.25875,-0.28375 -0.4375,-0.3125 -0.17,-0.055 -0.0175,0.185 0,0.3125 0.0288,0.1125 -0.006,0.13875 -0.0312,0.28125 -0.0263,0.14 -0.0425,0.235 0.0625,0.375 l -1.65625,0 c 0,0 0.0426,-0.11875 0.0937,-0.21875 0.0362,-0.11375 0.15,-0.14375 0.28125,-0.15625 0.13375,-0.0425 0.19375,-0.0462 0.34375,-0.0312 0.1125,0.0275 0.24,-0.0475 0.34375,0.0625 0.14,0.12875 0.2925,0.0811 0.25,-0.0312 -0.045,-0.12625 -0.0575,-0.7325 -0.0312,-0.96875 0.0488,-0.2375 0.075,-0.4525 0.0625,-0.59375 -0.0488,-0.11125 -0.21125,-0.0725 -0.34375,0 -0.1475,0.0725 -0.2075,0.0937 -0.34375,0.0937 -0.155,-0.0263 -0.2575,-0.2325 -0.4375,-0.34375 -0.165,-0.1025 -0.1,0.1775 -0.1875,0.25 -0.0662,0.0987 -0.165,0.085 -0.21875,0 -0.07,-0.04 0.0362,-0.15125 0.0625,-0.28125 0.04,-0.11 0.0987,-0.28125 -0.0625,-0.28125 -0.1425,0 -0.12,0.1975 -0.28125,0.4375 -0.15,0.25 -0.4625,0.5625 -1.1875,0.5625 -0.73875,0 -1.18375,-0.53375 -1.21875,-1.34375 -0.01,-0.75625 0.48125,-1.08875 0.625,-1.1875 0.15,-0.115 0.0975,-0.11875 0.15625,-0.34375 0.07,-0.19625 -0.0488,-0.18375 -0.21875,-0.125 -0.20125,0.025 -0.39375,0.0838 -0.59375,0.15625 -0.18,0.0525 -0.29,0.0888 -0.25,0.15625 0.0175,0.0963 0.0312,0.2375 0.0312,0.375 0,0.1575 0,0.43125 -0.15625,0.53125 -0.1525,0.0712 -0.1238,-0.16125 -0.0937,-0.28125 0.035,-0.15625 -0.0625,-0.15625 -0.0625,-0.3125 0,-0.1225 -0.0125,-0.0937 -0.15625,-0.0937 -0.1325,0 -0.11255,-0.0588 -0.0937,-0.15625 0,-0.11 0.0225,-0.1625 0.0937,-0.1875 0.09,-0.0137 0.2225,-0.0562 0.25,-0.15625 0.0112,-0.0963 0.0625,-0.325 0.0625,-0.40625 0.0175,-0.0875 -0.0875,-0.21875 -0.34375,-0.21875 z m 4.5,0.0625 c -0.0608,-0.0106 -0.15125,0.009 -0.25,0.0312 -0.20875,0.0425 -0.2675,0.1975 -0.28125,0.28125 -0.015,0.0688 0.0687,0.0925 0.15625,0.0625 0.0538,-0.0412 0.13625,-0.0725 0.15625,-0.0312 0.0112,0.0412 0.045,0.215 0.0625,0.28125 0,0.125 0.0675,0.23875 0,0.28125 -0.0687,0.0388 -0.16875,0.0963 -0.28125,0.125 -0.11,0.04 -0.2275,-0.0712 -0.40625,-0.125 -0.1725,-0.0862 -0.37875,-0.29125 -0.4375,-0.34375 -0.0625,-0.1 -0.0625,-0.0925 -0.0625,-0.21875 0.015,-0.11 -0.11125,-0.175 -0.21875,-0.1875 -0.1,-0.045 -0.17625,0 -0.375,0 -0.19875,0 -0.14375,0.15 -0.0625,0.21875 0.0675,0.07 0.125,0.14 0.125,0.28125 0.0112,0.12625 0.0975,0.14375 0.25,0.15625 0.165,0.0438 0.27625,0.0662 0.4375,0.25 0.1725,0.17 0.2375,0.4975 0.28125,0.71875 0.03,0.21125 0.0737,0.32375 0.125,0.5625 0.0588,0.255 0.36875,0.275 0.5625,0.375 0.20875,0.055 0.4,-0.045 0.5,-0.15625 0.115,-0.085 0.14,-0.008 0.3125,0.1875 0.185,0.21375 0.24125,-0.0612 0.28125,-0.1875 0.006,-0.0975 -0.0825,-0.1725 -0.125,-0.3125 -0.0513,-0.15375 -0.14,-0.44125 -0.1875,-0.65625 -0.0675,-0.205 -0.14125,-0.43375 -0.21875,-0.5 -0.1175,-0.0562 -0.215,-0.0612 -0.1875,-0.1875 0.005,-0.11 0.0312,-0.2375 0.0312,-0.40625 0,-0.16625 -0.0239,-0.26 -0.0937,-0.375 -0.0119,-0.0756 -0.0331,-0.11437 -0.0937,-0.125 z m 42.84375,1.3125 -8.15625,3.4375 1.0625,2.5 3.0625,-1.28125 0.34375,0.78125 -2.5625,2.5 1.15625,2.8125 2.875,-3 c 0.85125,0.76 1.72125,0.9675 2.8125,0.5 0.78875,-0.31 1.37375,-0.94625 1.5,-1.8125 0.14125,-0.77125 -0.0712,-1.5675 -0.375,-2.28125 l -1.71875,-4.15625 z m -0.71875,3.28125 0.4375,1 c 0.105,0.22 0.23375,0.49375 0.21875,0.75 -0.03,0.29125 -0.24375,0.54125 -0.53125,0.65625 -0.72,0.295 -1.05875,-0.29625 -1.28125,-0.84375 l -0.40625,-0.9375 1.5625,-0.625 z m -86.53125,5.5625 -0.875,3.40625 -6.4375,-1.625 -0.65625,2.625 8.53125,2.15625 1.53125,-6.03125 -2.09375,-0.53125 z m 87.5625,1.5 c -0.31037,0.0146 -0.61125,0.0566 -0.9375,0.125 -2.495,0.44625 -4.1625,2.35 -3.65625,4.96875 0.48875,2.6375 2.71875,3.77125 5.21875,3.3125 2.5925,-0.4825 4.20625,-2.3625 3.71875,-5 -0.45063,-2.30125 -2.17119,-3.50834 -4.34375,-3.40625 z m 0.34375,2.84375 c 0.84604,-0.0702 1.85688,0.0553 2.03125,0.9375 0.235,1.17875 -1.45125,1.6125 -2.28125,1.78125 -0.87875,0.15125 -2.4825,0.36375 -2.71875,-0.84375 -0.2325,-1.22125 1.3475,-1.59125 2.21875,-1.75 0.21031,-0.0422 0.46799,-0.1016 0.75,-0.125 z m -93.65625,2.96875 c -0.94875,-0.0588 -1.84875,0.4075 -2.375,1.1875 -0.4975,0.7475 -0.58,1.67875 -0.6875,2.5625 l -0.21875,3.625 8.84375,0.53125 0.15625,-2.75 -3.1875,-0.21875 0.0937,-1.375 c 0.0362,-0.82625 0.001,-1.73375 -0.53125,-2.4375 -0.485,-0.67125 -1.26125,-1.07125 -2.09375,-1.125 z m -0.0625,2.6875 c 0.815,0.0862 0.7975,0.82 0.75,1.4375 l -0.0312,0.6875 -1.6875,-0.0937 0.0312,-0.78125 c 0.0475,-0.6075 0.15375,-1.27625 0.9375,-1.25 z m 91.75,1.3125 -2.125,0.0312 c -0.15,0.59125 -0.1875,1.175 -0.1875,1.78125 0.007,0.96625 0.1875,1.8675 0.96875,2.4375 0.6975,0.55375 1.78875,0.53125 2.6875,0.53125 l 5.375,-0.0625 -0.0312,-2.59375 -5.375,0.0312 c -0.39625,0 -0.83625,0.02 -1.125,-0.25 -0.24375,-0.1975 -0.32375,-0.5475 -0.34375,-0.84375 0,-0.35875 0.0488,-0.725 0.15625,-1.0625 z m -46.1875,4.46875 0,9.4375 -0.53125,0 0,4.25 c -0.41375,0.1975 -0.71875,0.63375 -0.71875,1.125 0,0.6675 0.5375,1.21875 1.21875,1.21875 0.0387,0 0.0775,0.0113 0.125,0 l 4.125,0 c 0.0425,0.0113 0.0539,0 0.0937,0 0.67875,0 1.21875,-0.55125 1.21875,-1.21875 0,-0.49125 -0.27375,-0.9275 -0.6875,-1.125 l 0,-4.25 -0.5625,0 0,-9.4375 -4.28125,0 z m -42.9375,7.71875 -2.53125,4.5 4.46875,2.53125 2.5,-4.4375 -4.4375,-2.59375 z m 90.375,0.25 -4.5,2.53125 2.5,4.46875 4.5,-2.5 -2.5,-4.5 z m -82.875,11.96875 c -0.83487,0.0684 -1.69875,0.40766 -2.53125,0.96875 -2.0725,1.4575 -2.855,3.83 -1.34375,6.03125 1.4975,2.22 4.07,2.35875 6.15625,0.9375 2.16375,-1.4825 2.885,-3.81125 1.375,-6.03125 -0.94687,-1.40937 -2.26479,-2.02025 -3.65625,-1.90625 z m 74.3125,0 c -0.94402,0.0758 -1.79219,0.69375 -2.40625,1.59375 -1.1025,1.63 -0.86875,3.4225 0.5625,4.6875 l 1.59375,-1.59375 c -0.5375,-0.43625 -1.1175,-1.0925 -0.65625,-1.78125 0.3075,-0.44375 0.84875,-0.45125 1.25,-0.1875 0.65375,0.43625 0.705,1.2675 0.78125,2 l 0.1875,3.71875 1.71875,1.15625 3.75,-5.59375 -1.78125,-1.28125 -1.90625,2.84375 0,-0.21875 -0.0625,-2.5625 c -0.115,-0.92 -0.48625,-1.73375 -1.28125,-2.28125 -0.59344,-0.40031 -1.18359,-0.54547 -1.75,-0.5 z m -73.3125,2.59375 c 0.39671,-0.0313 0.75438,0.0952 1,0.46875 0.685,0.96375 -0.65625,2.02625 -1.34375,2.53125 -0.7125,0.47375 -2.1775,1.30375 -2.875,0.28125 -0.7,-1.0125 0.62625,-1.9925 1.34375,-2.46875 0.45,-0.30078 1.21382,-0.76038 1.875,-0.8125 z m 67.71875,3.21875 -1.875,1.9375 1.3125,5.96875 1.34375,1.34375 2.5625,-2.625 1.40625,1.40625 1.65625,-1.78125 -1.34375,-1.34375 0.8125,-0.875 -1.3125,-1.34375 -0.875,0.875 -3.6875,-3.5625 z m -62.34375,0.125 -6.09375,6.375 2.46875,2.40625 c 0.87,0.845 1.86,1.4025 3.125,1.34375 1.16,-0.04 2.29375,-0.65125 3.09375,-1.46875 0.87,-0.95125 1.395,-2.1175 1.34375,-3.40625 -0.0563,-1.2875 -0.66875,-2.13625 -1.59375,-3 l -2.34375,-2.25 z m 0.5625,3.3125 0.21875,0.1875 c 0.4525,0.44 0.77,0.72625 0.71875,1.375 -0.07,0.63 -0.47,1.31125 -0.875,1.71875 -0.41875,0.44875 -0.90875,0.7675 -1.46875,0.9375 -0.265,0.0688 -0.565,0.1113 -0.84375,0.0312 -0.3625,-0.1025 -0.5225,-0.2825 -0.78125,-0.53125 l -0.25,-0.25 3.28125,-3.46875 z m 61.84375,0 1.90625,1.84375 -1.1875,1.21875 -0.71875,-3.0625 z m -5.28125,2.25 c -0.72469,0.0606 -1.47313,0.39875 -2.0625,0.8125 -0.6725,0.4725 -1.27,1.08 -1.5625,1.9375 -0.2575,0.7425 -0.11625,1.635 0.34375,2.28125 0.48,0.67 1.17375,1.005 2.03125,0.90625 -0.50375,0.79875 -0.53625,1.6675 0,2.4375 0.50875,0.715 1.28875,1.0025 2.15625,0.90625 0.73,-0.0838 1.48125,-0.46125 2.09375,-0.90625 1.47,-1.01875 2.6475,-2.70875 1.4375,-4.40625 -0.6,-0.83625 -1.4125,-1.0775 -2.40625,-0.9375 0.3075,-0.775 0.39745,-1.46875 -0.0937,-2.1875 -0.49563,-0.7075 -1.21281,-0.90437 -1.9375,-0.84375 z m -0.40625,2.0313 c 0.26375,4.7e-4 0.50875,0.14937 0.6875,0.4375 0.21,0.31 0.2138,0.66 0.0312,0.96875 l -0.6875,0.15625 c -0.395,0.07 -0.885,0.16125 -1.125,-0.1875 -0.2875,-0.39125 -0.0425,-0.7925 0.3125,-1.0625 0.23625,-0.1875 0.5175,-0.31297 0.78125,-0.3125 z m -47.3125,0.4375 -3.9375,7.875 2.46875,1.21875 1.46875,-3 0.78125,0.375 -0.375,3.59375 2.6875,1.34375 0.28125,-4.15625 c 1.14625,0.0375 1.9325,-0.33875 2.4375,-1.375 0.375,-0.775 0.4225,-1.635 0,-2.375 -0.395,-0.675 -1.11625,-1.165 -1.8125,-1.5 l -4,-2 z m 40.28125,1.59375 -1.71875,0.78125 c -0.1175,0.98625 -0.95125,1.84125 -1.71875,2.40625 l 0.84375,1.8125 c 0.55875,-0.37375 0.99375,-0.83625 1.40625,-1.3125 l 0.0937,-0.0937 1.71875,3.8125 -1.9375,0.90625 0.8125,1.8125 6.1875,-2.875 -0.8437,-1.7813 -1.875,0.84375 -2.96875,-6.3125 z m -38.6875,1.28125 1,0.5 c 0.22625,0.13875 0.46,0.25875 0.625,0.46875 0.16875,0.25375 0.18625,0.56375 0.0625,0.8125 -0.35,0.675 -1.025,0.4725 -1.5625,0.1875 l -0.84375,-0.4375 0.71875,-1.53125 z m 48.15625,0.125 c 0.22219,0.008 0.42563,0.0719 0.5625,0.28125 0.3075,0.43625 -0.11,0.90625 -0.4375,1.15625 -0.495,0.335 -1.2225,0.60125 -1.625,0 -0.22625,-0.3375 -0.19505,-0.76875 -0.0312,-1.125 l 0.875,-0.21875 c 0.20437,-0.0481 0.43406,-0.1013 0.65625,-0.0937 z m -39.25,1.40625 c -2.13112,-0.13663 -3.74328,1.28078 -4.34375,3.5 -0.615,2.41 0.3625,4.79375 3,5.5 2.58,0.65625 4.535,-0.89375 5.1875,-3.375 0.66125,-2.5375 -0.3025,-4.79875 -2.90625,-5.46875 -0.32406,-0.0847 -0.63305,-0.13673 -0.9375,-0.15625 z m 21,0.6875 -2.15625,0.28125 0.78125,5.34375 c 0.065,0.40875 0.17125,0.86875 -0.125,1.25 -0.2,0.25125 -0.56625,0.3975 -0.875,0.4375 -0.3375,0.0488 -0.775,-0.0287 -1,-0.28125 -0.21,-0.23625 -0.265,-0.65 -0.3125,-0.9375 l -0.8125,-5.46875 -2.71875,0.40625 0.84375,5.78125 c 0.16375,1.065 0.445,1.84875 1.46875,2.3125 0.7325,0.3525 1.83125,0.3825 2.625,0.25 0.9125,-0.11 1.81375,-0.41 2.5,-1.09375 0.73375,-0.8125 0.72875,-1.65 0.59375,-2.6875 l -0.8125,-5.59375 z m -15.40625,0.6875 -0.4375,8.84375 2.5625,0.125 0.0937,-2 1.03125,-1.3125 1.34375,3.46875 2.9375,0.15625 -2.4375,-5.78125 2.375,-3.09375 -2.4375,-0.15625 -2.65625,3.5 0.1875,-3.625 -2.5625,-0.125 z m -5.5625,0.6875 c 0.12594,-0.0171 0.26266,-0.007 0.40625,0.0312 1.145,0.29375 0.8425,1.97125 0.625,2.8125 -0.21125,0.81375 -0.70875,2.41 -1.90625,2.0625 -1.19625,-0.31245 -0.8525,-1.90625 -0.65625,-2.71875 0.20016,-0.735 0.64969,-2.06775 1.53125,-2.1875 z"
       id="path100"
       style="fill:#a7a056;fill-opacity:1;fill-rule:nonzero;stroke:none" />
    <path
       d="m 305.55143,470.69288 c 0,0.74 -0.6875,0.71875 -0.6875,0.71875 l 0,1.375 c 0.8425,0 0.6875,0.625 0.6875,0.625 l 15.34375,0 c 0,-0.75875 0.71875,-0.625 0.71875,-0.625 l 0,-1.375 c 0,0 -0.71875,-0.01 -0.71875,-0.71875 l -15.34375,0 z m 17.78125,0 c 0,0.74 -0.71875,0.71875 -0.71875,0.71875 l 0,1.375 c 0.86375,0 0.71875,0.625 0.71875,0.625 l 15.3125,0 c 0,-0.75875 0.6875,-0.625 0.6875,-0.625 l 0,-1.375 c 0,0 -0.6875,-0.01 -0.6875,-0.71875 l -15.3125,0 z m -9.3125,7.875 c -5.12125,0 -9.28125,4.18 -9.28125,9.3125 l 0.8125,0 c 0,-4.66375 3.79625,-8.46875 8.46875,-8.46875 3.2425,0 6.02,1.84 7.4375,4.53125 0.18,0.34875 0.365,0.71 0.5,1.0625 0.14,-0.365 0.28625,-0.71375 0.4375,-1.0625 1.42375,-2.69125 4.23375,-4.53125 7.5,-4.53125 4.6625,0 8.4375,3.805 8.4375,8.46875 l 0.84375,0 c 0,-5.1325 -4.14125,-9.3125 -9.28125,-9.3125 -3.385,0 -6.31,1.81125 -7.9375,4.5 -1.625,-2.68875 -4.5725,-4.5 -7.9375,-4.5 z"
       id="path172"
       style="fill:#a6111c;fill-opacity:1;fill-rule:nonzero;stroke:none" />
  </g>
</svg>
